<?xml version="1.0" encoding="UTF-8"?><svg id="Layer_2" xmlns="http://www.w3.org/2000/svg" viewBox="0 0 319.9 306.87"><defs><style>.cls-1,.cls-2{fill:#fff;}.cls-2{stroke:#fff;stroke-miterlimit:10;stroke-width:.25px;}.cls-3{fill:#d6d6d6;}.cls-4{fill:none;}.cls-5{fill:#d1cb9f;}</style></defs><g id="Layer_1-2"><g><g><path class="cls-4" d="M233.51,103.55c7.05,0,12.33-2.49,15.86-7.46,2.69-3.94,4.14-9.8,4.35-17.57,.2-7.77,.31-18.04,.31-30.79s-1.3-22.8-3.89-30.16c-2.59-7.36-8.45-11.04-17.57-11.04s-14.98,3.68-17.57,11.04c-2.59,7.36-3.89,17.31-3.89,29.85s.1,20.94,.31,25.19c.2,4.25,.67,8.66,1.4,13.22,.72,4.56,1.91,7.98,3.58,10.26,3.52,4.98,9.22,7.46,17.1,7.46Z"/><path class="cls-4" d="M111.64,36.85c-.42-6.11-1.14-10.57-2.18-13.37-1.04-2.8-2.39-5.75-4.04-8.86-3.11-5.39-8.81-8.09-17.1-8.09-9.33,0-16.28,3.73-20.83,11.19-3.53,6.02-5.6,16.38-6.22,31.1-.21,5.19-.31,12.18-.31,20.99s.05,15.6,.16,20.37c.1,4.77,.36,9.8,.78,15.08,.41,5.29,1.09,9.28,2.02,11.97,.93,2.7,2.12,5.29,3.58,7.77,2.69,4.15,7.57,6.22,14.62,6.22s13.01-2.64,17.88-7.93c4.87-5.29,8.19-11.51,9.95-18.66,1.76-7.15,2.64-16.48,2.64-27.99s-.05-19.48-.16-23.94c-.11-4.46-.36-9.74-.78-15.86Z"/><path class="cls-4" d="M232.42,110.71c-10.68,0-17.88,4.2-21.61,12.59-3.73,8.4-5.6,22.19-5.6,41.36s1.81,32.81,5.44,40.89c3.62,8.09,10.93,12.13,21.92,12.13s18.24-4.09,21.77-12.28c3.52-8.19,5.29-21.87,5.29-41.05s-1.87-32.91-5.6-41.2c-3.73-8.29-10.94-12.44-21.61-12.44Z"/><path class="cls-4" d="M173.8,116.84c10.6-5.06,24.06-8.15,40.43-9.24v-.93c-16.15-.83-29.41-4.24-39.81-10.22,0,.82,.03,1.62,.03,2.45,0,6.21-.23,12.18-.65,17.95Z"/><path class="cls-3" d="M173.8,116.84c.42-5.77,.65-11.74,.65-17.95,0-.83-.02-1.63-.03-2.45-2.55-1.47-4.94-3.08-7.15-4.86-11.19-9.02-16.79-20.68-16.79-34.98,0-9.92,2.26-18.65,6.77-26.22C143.01,10.14,119.94,0,88,0,62.3,0,41.2,6.12,24.72,18.35,8.24,30.58,0,49.13,0,74.01c0,20.94,6.01,37.42,18.04,49.44,12.02,12.03,27.36,18.04,46.02,18.04,21.97,0,38.35-8.4,49.13-25.19-.21,37.53-3.47,63.86-9.8,78.99-6.33,15.14-16.43,22.7-30.32,22.7-8.71,0-15.29-1.91-19.75-5.75-4.46-3.83-6.69-8.19-6.69-13.06s.72-8.86,2.18-11.97h9.33c1.66-4.56,2.49-9.9,2.49-16.02s-2.44-11.4-7.31-15.86c-4.87-4.46-11.51-6.69-19.9-6.69s-15.14,3.06-20.21,9.17c-5.08,6.12-7.62,13.32-7.62,21.61,0,13.27,6.17,24.05,18.5,32.34,12.33,8.29,29.39,12.44,51.15,12.44,31.1,0,55.4-10.83,72.92-32.5,.5-.62,.96-1.27,1.45-1.9-3.36-7.21-5.05-15.53-5.05-25,0-22.69,9.75-38.67,29.23-47.97Zm-63.87-12.2c-1.76,7.15-5.08,13.37-9.95,18.66-4.87,5.29-10.84,7.93-17.88,7.93s-11.92-2.07-14.62-6.22c-1.45-2.49-2.64-5.08-3.58-7.77-.93-2.69-1.61-6.69-2.02-11.97-.42-5.29-.68-10.31-.78-15.08-.11-4.77-.16-11.55-.16-20.37s.1-15.81,.31-20.99c.62-14.72,2.69-25.08,6.22-31.1,4.56-7.46,11.51-11.19,20.83-11.19,8.29,0,13.99,2.7,17.1,8.09,1.66,3.11,3,6.06,4.04,8.86,1.03,2.8,1.76,7.26,2.18,13.37,.41,6.12,.67,11.4,.78,15.86,.1,4.46,.16,12.44,.16,23.94s-.88,20.83-2.64,27.99Z"/><path class="cls-3" d="M251.86,107.6v-.93c19.9-1.45,35.14-6.79,45.71-16.02,10.57-9.22,15.86-21.87,15.86-37.94s-6.84-28.87-20.52-38.4c-13.68-9.53-33.9-14.3-60.64-14.3s-47.06,5.08-60.95,15.24c-5.98,4.37-10.66,9.42-14.07,15.14,11.14,15.83,16.86,37.85,17.17,66.06,10.4,5.98,23.66,9.39,39.81,10.22v.93c-16.36,1.1-29.83,4.18-40.43,9.24-2.21,30.52-10.27,54.84-24.18,72.97,10.67,22.92,38.31,34.39,82.95,34.39,29.64,0,51.47-4.98,65.46-14.93,13.99-9.95,20.99-24.88,20.99-44.78,0-34.21-22.39-53.18-67.17-56.91Zm-39.03-21.77c-.73-4.56-1.2-8.96-1.4-13.22-.21-4.25-.31-12.64-.31-25.19s1.29-22.49,3.89-29.85c2.59-7.36,8.44-11.04,17.57-11.04s14.98,3.68,17.57,11.04c2.59,7.36,3.89,17.41,3.89,30.16s-.11,23.01-.31,30.79c-.21,7.77-1.66,13.63-4.35,17.57-3.53,4.98-8.81,7.46-15.86,7.46-7.88,0-13.58-2.49-17.1-7.46-1.66-2.28-2.85-5.7-3.58-10.26Zm41.51,119.57c-3.53,8.19-10.78,12.28-21.77,12.28s-18.3-4.04-21.92-12.13c-3.63-8.08-5.44-21.71-5.44-40.89s1.87-32.96,5.6-41.36c3.73-8.4,10.93-12.59,21.61-12.59s17.88,4.15,21.61,12.44c3.73,8.29,5.6,22.03,5.6,41.2s-1.76,32.86-5.29,41.05Z"/><path class="cls-5" d="M167.27,91.58c2.21,1.78,4.59,3.39,7.15,4.86-.31-28.21-6.04-50.23-17.17-66.06-4.5,7.56-6.77,16.3-6.77,26.22,0,14.3,5.6,25.97,16.79,34.98Z"/><path class="cls-1" d="M167.27,91.58c2.21,1.78,4.59,3.39,7.15,4.86-.31-28.21-6.04-50.23-17.17-66.06-4.5,7.56-6.77,16.3-6.77,26.22,0,14.3,5.6,25.97,16.79,34.98Z"/><path class="cls-5" d="M144.57,164.81c0,9.47,1.7,17.8,5.05,25,13.9-18.13,21.96-42.45,24.18-72.97-19.48,9.3-29.23,25.29-29.23,47.97Z"/><path class="cls-1" d="M144.57,164.81c0,9.47,1.7,17.8,5.05,25,13.9-18.13,21.96-42.45,24.18-72.97-19.48,9.3-29.23,25.29-29.23,47.97Z"/></g><g><g><g><path class="cls-1" d="M175.2,296.14c2.35-2.28,4.62-4.53,6.81-6.76,2.19-2.22,4.15-4.39,5.88-6.51,1.73-2.11,3.1-4.16,4.11-6.15,1.01-1.99,1.52-3.92,1.52-5.79,0-1.62-.25-2.98-.74-4.08-.5-1.1-1.14-1.99-1.93-2.68-.79-.68-1.65-1.18-2.59-1.49-.94-.31-1.85-.47-2.73-.47-1.58,0-2.89,.27-3.92,.8-1.03,.53-1.85,1.22-2.45,2.07-.61,.85-1.04,1.74-1.3,2.68-.26,.94-.39,1.83-.39,2.68,0,1.29,.18,2.45,.55,3.48,.37,1.03,.9,1.91,1.6,2.65l-1.65,1.49c-.66-.59-1.23-1.28-1.71-2.07-.48-.79-.84-1.66-1.08-2.62-.24-.96-.36-1.91-.36-2.87,0-1.99,.42-3.8,1.27-5.43,.85-1.64,2.1-2.94,3.75-3.92,1.65-.97,3.66-1.46,6.01-1.46,2.1,0,3.93,.49,5.49,1.46,1.56,.97,2.78,2.3,3.64,3.97,.86,1.67,1.3,3.54,1.3,5.6s-.48,4.03-1.43,6.01c-.96,1.99-2.22,3.95-3.78,5.9-1.56,1.95-3.25,3.88-5.08,5.79-1.82,1.91-3.6,3.81-5.32,5.68l-1.05-.55h18.65v2.59h-23.06Z"/><path class="cls-1" d="M192.89,288.53v-.06l20.96-26.87h.06v24.77h5.08v2.15h-5.08v9.54h-2.7v-9.54h-18.32Zm18.65-20.36l-14.4,18.43-.88-.22h14.95v-19.8l.33,1.6Z"/></g><g><path class="cls-1" d="M232.17,306.87l-1.76-1.7c1.02-1.02,1.83-2.29,2.43-3.81,.61-1.52,.91-3.24,.91-5.16v-23.28h2.81v23.22c0,2.46-.36,4.58-1.08,6.36-.72,1.78-1.83,3.23-3.31,4.37Zm1-42.39c0-.55,.21-1.01,.64-1.38,.43-.37,.9-.56,1.41-.56,.55,0,1.02,.19,1.41,.56,.39,.37,.59,.83,.59,1.38,0,.59-.2,1.07-.59,1.44-.39,.37-.86,.56-1.41,.56-.51,0-.98-.2-1.41-.59-.43-.39-.64-.86-.64-1.41Z"/><path class="cls-1" d="M248.59,296.5c-2.15,0-3.87-.64-5.16-1.91-1.29-1.27-1.97-2.92-2.05-4.95v-16.71h2.76v15.89c.08,1.49,.56,2.72,1.44,3.69,.88,.98,2.2,1.51,3.96,1.58,1.49,0,2.87-.39,4.16-1.17,1.29-.78,2.34-1.85,3.14-3.2,.8-1.35,1.2-2.88,1.2-4.6v-12.2h2.76v22.92h-2.46l-.29-7.21,.41,1.58c-.39,1.17-1.08,2.24-2.08,3.2-1,.96-2.17,1.71-3.52,2.26-1.35,.55-2.77,.82-4.25,.82Z"/><path class="cls-1" d="M265.31,251.29h2.76v44.56h-2.76v-44.56Z"/><path class="cls-1" d="M272.58,295.85v-44.56h2.7v27.73l-.18-1c.78-1.6,2.04-2.96,3.78-4.07,1.74-1.11,3.74-1.67,6.01-1.67,2.15,0,3.89,.64,5.22,1.91,1.33,1.27,2.01,2.92,2.05,4.95v16.71h-2.81v-15.95c-.04-1.48-.51-2.72-1.41-3.69-.9-.98-2.21-1.48-3.93-1.52-1.52,0-2.95,.39-4.28,1.17-1.33,.78-2.39,1.84-3.2,3.17-.8,1.33-1.2,2.83-1.2,4.51v12.31h-2.76Z"/><path class="cls-1" d="M295.45,284.24c0-2.23,.54-4.26,1.61-6.1,1.07-1.84,2.54-3.29,4.4-4.37,1.86-1.07,3.94-1.61,6.24-1.61s4.44,.54,6.27,1.61c1.84,1.08,3.28,2.53,4.34,4.37,1.06,1.84,1.58,3.87,1.58,6.1s-.53,4.26-1.58,6.1c-1.06,1.84-2.51,3.29-4.37,4.37-1.86,1.08-3.96,1.61-6.3,1.61s-4.38-.52-6.21-1.55c-1.84-1.04-3.29-2.46-4.37-4.28-1.08-1.82-1.61-3.9-1.61-6.24Zm2.76,.06c0,1.8,.42,3.43,1.26,4.9,.84,1.47,1.97,2.63,3.4,3.49,1.43,.86,3.02,1.29,4.78,1.29s3.35-.43,4.78-1.29c1.43-.86,2.56-2.02,3.4-3.49,.84-1.47,1.26-3.1,1.26-4.9s-.42-3.43-1.26-4.9c-.84-1.47-1.97-2.64-3.4-3.52-1.43-.88-3.02-1.32-4.78-1.32s-3.41,.46-4.84,1.38c-1.43,.92-2.55,2.12-3.37,3.61-.82,1.49-1.23,3.07-1.23,4.75Z"/></g></g><g><path class="cls-2" d="M14.76,296.32c-2.2,0-4.2-.5-5.99-1.5-1.79-1-3.21-2.41-4.25-4.22-1.04-1.81-1.56-3.91-1.56-6.31,0-2.56,.55-4.75,1.65-6.58,1.1-1.83,2.6-3.22,4.48-4.19,1.89-.96,4.03-1.45,6.43-1.45,2.04,0,3.98,.61,5.81,1.83,1.83,1.22,3.14,2.75,3.92,4.6l-.41,.83,.35-6.55h2.48v23.07h-2.77v-7.14l.59,1.06c-.28,.79-.75,1.56-1.42,2.33-.67,.77-1.49,1.48-2.45,2.12-.96,.65-2.03,1.16-3.19,1.53s-2.39,.56-3.69,.56Zm.59-2.36c1.73,0,3.29-.36,4.69-1.09,1.4-.73,2.53-1.74,3.39-3.04,.86-1.3,1.36-2.79,1.47-4.48v-3.3c-.32-1.45-.93-2.75-1.86-3.89-.92-1.14-2.06-2.04-3.39-2.71-1.34-.67-2.79-1-4.37-1-1.73,0-3.32,.4-4.78,1.21-1.46,.81-2.62,1.94-3.48,3.39-.87,1.46-1.3,3.17-1.3,5.13,0,1.81,.43,3.45,1.3,4.93,.86,1.48,2.04,2.66,3.51,3.54,1.47,.88,3.08,1.33,4.81,1.33Z"/><path class="cls-2" d="M40.96,296.73l-11.68-23.95h3.25l9.62,20.95-1.71-.06,9.26-20.89h3.07l-11.45,23.95h-.35Z"/><path class="cls-2" d="M64.09,296.32c-2.4,0-4.52-.53-6.37-1.59-1.85-1.06-3.29-2.51-4.34-4.34s-1.56-3.88-1.56-6.17,.55-4.29,1.65-6.14c1.1-1.85,2.59-3.32,4.45-4.43,1.87-1.1,3.94-1.65,6.22-1.65,2.75,0,5.06,.81,6.93,2.42,1.87,1.61,3.22,3.72,4.04,6.31l-20.18,7.79-.83-2.01,18.47-7.2-.59,.83c-.67-1.57-1.68-2.93-3.04-4.07-1.36-1.14-3.02-1.71-4.99-1.71-1.77,0-3.36,.43-4.78,1.3-1.42,.87-2.55,2.03-3.39,3.48-.85,1.46-1.27,3.11-1.27,4.96,0,1.73,.4,3.34,1.21,4.84,.81,1.5,1.94,2.69,3.39,3.6,1.45,.91,3.13,1.36,5.01,1.36,1.26,0,2.47-.24,3.63-.71,1.16-.47,2.19-1.08,3.1-1.83l1.42,2.01c-1.1,.87-2.37,1.57-3.81,2.12-1.44,.55-2.9,.83-4.4,.83Z"/><path class="cls-2" d="M79.9,272.78l.29,7.26-.35-1.42c.67-2.01,1.94-3.59,3.8-4.75s3.94-1.74,6.22-1.74c2.16,0,3.91,.64,5.25,1.92,1.34,1.28,2.03,2.94,2.07,4.99v16.82h-2.83v-16.05c-.04-1.5-.51-2.73-1.42-3.72-.91-.98-2.22-1.49-3.95-1.53-1.53,0-2.97,.37-4.31,1.12-1.34,.75-2.41,1.79-3.22,3.13-.81,1.34-1.21,2.89-1.21,4.66v12.39h-2.77v-23.07h2.42Z"/><path class="cls-2" d="M101.79,264.28c0-.55,.22-1.01,.65-1.39,.43-.37,.91-.56,1.42-.56,.55,0,1.02,.19,1.42,.56,.39,.38,.59,.84,.59,1.39,0,.59-.2,1.07-.59,1.45-.39,.38-.87,.56-1.42,.56-.51,0-.98-.2-1.42-.59-.43-.39-.65-.86-.65-1.42Zm.59,8.5h2.77v23.07h-2.77v-23.07Z"/><path class="cls-2" d="M119.78,296.32c-2.16,0-4.13-.52-5.9-1.56-1.77-1.04-3.18-2.49-4.22-4.34-1.04-1.85-1.56-3.93-1.56-6.25,0-2.48,.53-4.62,1.59-6.43,1.06-1.81,2.51-3.21,4.34-4.19s3.84-1.48,6.05-1.48,4.3,.57,6.28,1.71c1.99,1.14,3.43,2.64,4.34,4.48l-.47,1.3v-28.56h2.77v44.84h-2.83v-7.08l.59,1.3c-.98,1.85-2.46,3.35-4.42,4.51-1.97,1.16-4.15,1.74-6.55,1.74Zm.71-2.42c1.77,0,3.36-.38,4.78-1.15s2.56-1.81,3.42-3.13c.87-1.32,1.36-2.8,1.48-4.46v-2.95c-.28-1.5-.88-2.83-1.83-4.01-.94-1.18-2.08-2.11-3.42-2.8-1.34-.69-2.81-1.03-4.42-1.03-1.77,0-3.38,.41-4.84,1.24s-2.62,1.97-3.48,3.42c-.87,1.46-1.3,3.15-1.3,5.07,0,1.81,.43,3.45,1.3,4.93,.86,1.47,2.04,2.65,3.51,3.54,1.47,.88,3.08,1.33,4.81,1.33Z"/><path class="cls-2" d="M147.75,296.32c-2.2,0-4.2-.5-5.99-1.5-1.79-1-3.21-2.41-4.25-4.22-1.04-1.81-1.56-3.91-1.56-6.31,0-2.56,.55-4.75,1.65-6.58,1.1-1.83,2.6-3.22,4.48-4.19,1.89-.96,4.03-1.45,6.43-1.45,2.04,0,3.98,.61,5.81,1.83,1.83,1.22,3.14,2.75,3.92,4.6l-.41,.83,.35-6.55h2.48v23.07h-2.77v-7.14l.59,1.06c-.28,.79-.75,1.56-1.42,2.33-.67,.77-1.49,1.48-2.45,2.12-.96,.65-2.03,1.16-3.19,1.53s-2.39,.56-3.69,.56Zm.59-2.36c1.73,0,3.29-.36,4.69-1.09,1.4-.73,2.53-1.74,3.39-3.04,.86-1.3,1.36-2.79,1.47-4.48v-3.3c-.32-1.45-.93-2.75-1.86-3.89-.92-1.14-2.06-2.04-3.39-2.71-1.34-.67-2.79-1-4.37-1-1.73,0-3.32,.4-4.78,1.21-1.46,.81-2.62,1.94-3.48,3.39-.87,1.46-1.3,3.17-1.3,5.13,0,1.81,.43,3.45,1.3,4.93,.86,1.48,2.04,2.66,3.51,3.54,1.47,.88,3.08,1.33,4.81,1.33Z"/></g></g></g></g></svg>