<?xml version="1.0" encoding="utf-8"?>
<!-- Generator: Adobe Illustrator 26.0.2, SVG Export Plug-In . SVG Version: 6.00 Build 0)  -->
<svg version="1.1" id="Layer_1" xmlns="http://www.w3.org/2000/svg" xmlns:xlink="http://www.w3.org/1999/xlink" x="0px" y="0px"
	 viewBox="0 0 454.1 456" style="enable-background:new 0 0 454.1 456;" xml:space="preserve">
<style type="text/css">
	.st0{fill:#006A4D;}
</style>
<g>
	<path class="st0" d="M390.6,0.3H62.5c-6.2,0-11.2,5-11.2,11.2v381.7c0,6.2,5,11.2,11.2,11.2H100v40.4c0,6.2,5,11.2,11.2,11.2h29.9
		c6.2,0,11.2-5,11.2-11.2v-40.4h148.6v40.4c0,6.2,5,11.2,11.2,11.2H342c6.2,0,11.2-5,11.2-11.2v-40.4h37.4c6.2,0,11.2-5,11.2-11.2
		l0-381.7C401.8,5.4,396.8,0.3,390.6,0.3L390.6,0.3z M126.1,376.2c-14.4,0-26.1-11.7-26.1-26.1c0-14.4,11.7-26.1,26.1-26.1
		c14.4,0,26.1,11.7,26.1,26.1C152.3,364.5,140.5,376.2,126.1,376.2z M327,376.2c-14.4,0-26.1-11.7-26.1-26.1
		c0-14.4,11.7-26.1,26.1-26.1c14.4,0,26.1,11.7,26.1,26.1S341.4,376.2,327,376.2z M377.8,171.5c0,6.2-1,16.2-2.1,22.2
		c0,0-17.9,92.3-149.6,92.3c-131.7,0-148.8-92.3-148.8-92.3c-1.1-6.1-2-16.1-2-22.2V31.8c0-6.2,5-11.2,11.2-11.2h280.1
		c6.2,0,11.2,5,11.2,11.2L377.8,171.5z"/>
	<path class="st0" d="M442.9,0h-6.8c-6.2,0-11.2,5-11.2,11.2v50.4c0,6.2,5,11.2,11.2,11.2h6.8c6.2,0,11.2-5,11.2-11.2V11.2
		C454.1,5,449,0,442.9,0z"/>
	<path class="st0" d="M18,0h-6.8C5,0,0,5,0,11.2v50.4c0,6.2,5,11.2,11.2,11.2H18c6.2,0,11.2-5,11.2-11.2V11.2C29.2,5,24.1,0,18,0z"
		/>
</g>
</svg>
