<svg id="Layer_1" data-name="Layer 1" xmlns="http://www.w3.org/2000/svg" viewBox="0 0 396.67 490"><defs><style>.cls-1{fill:#006a4d;}</style></defs><path class="cls-1" d="M163.33,443.33A140.13,140.13,0,0,0,295.24,349.8c100.07-2.21,101.43-92.21,101.43-93.13A11.66,11.66,0,0,0,385,245H35a11.68,11.68,0,0,0-11.67,11.67v46.66h0a140.15,140.15,0,0,0,140,140Zm137.95-117a139,139,0,0,0,2.05-22.95v-35H372c-3.69,18.86-17.72,54.12-70.75,57.95Z"/><path class="cls-1" d="M373.33,466.67H11.66a11.67,11.67,0,0,0,0,23.33H373.33a11.67,11.67,0,1,0,0-23.33Z"/><path class="cls-1" d="M221.66,198.33a11.67,11.67,0,1,0,23.34,0,34.64,34.64,0,0,1,9.33-24.12,58.88,58.88,0,0,0,0-76.23,35.8,35.8,0,0,1,0-48.21,57.25,57.25,0,0,0,14-38.1,11.67,11.67,0,1,0-23.33,0,34.53,34.53,0,0,1-9.33,24.08,57.29,57.29,0,0,0-14,38.11,57.25,57.25,0,0,0,14,38.11,35.84,35.84,0,0,1,0,48.25,57.33,57.33,0,0,0-14,38.11Z"/><path class="cls-1" d="M140,198.33a11.67,11.67,0,0,0,23.34,0,34.6,34.6,0,0,1,9.33-24.12,58.88,58.88,0,0,0,0-76.23,35.8,35.8,0,0,1,0-48.21,57.3,57.3,0,0,0,14-38.1,11.67,11.67,0,1,0-23.33,0A34.54,34.54,0,0,1,154,35.75a57.33,57.33,0,0,0-14,38.11A57.29,57.29,0,0,0,154,112a35.83,35.83,0,0,1,0,48.25,57.33,57.33,0,0,0-14,38.11Z"/><path class="cls-1" d="M58.33,198.33a11.67,11.67,0,0,0,23.34,0A34.64,34.64,0,0,1,91,174.21,58.88,58.88,0,0,0,91,98a35.8,35.8,0,0,1,0-48.21,57.3,57.3,0,0,0,14-38.1,11.67,11.67,0,1,0-23.33,0,34.58,34.58,0,0,1-9.33,24.08,57.29,57.29,0,0,0-14,38.11,57.25,57.25,0,0,0,14,38.11,35.84,35.84,0,0,1,0,48.25,57.33,57.33,0,0,0-14,38.11Z"/></svg>