<svg xmlns="http://www.w3.org/2000/svg" viewBox="0 0 352.91 87.72"><defs><style>.cls-1{fill:#00684b;}</style></defs><g id="Layer_2" data-name="Layer 2"><g id="Layer_1-2" data-name="Layer 1"><path class="cls-1" d="M160.44,42.43c11.16-3.7,13.18-13.06,13.15-20.7C173.57,10.08,165.35,0,141,0H95.58V87.54h45.31c24.48,0,33.49-12.57,33.49-25.16C174.38,47.13,160.44,42.43,160.44,42.43ZM117.13,19.05h30.59l.11,0a7.14,7.14,0,0,1,6,7,7.49,7.49,0,0,1-6.25,7.33l-30.39,0Zm29.12,48.09H117.13V52.48H147a7.28,7.28,0,0,1,6.52,7.18A7.55,7.55,0,0,1,146.25,67.14Z"/><path class="cls-1" d="M276.12,0h76.77l0,19.11h-55.4l.05,14.11h49.94v19.2H297.5V67.7h55.41l0,20H276.12Z"/><path class="cls-1" d="M231.46.13H185V87.69h21.32V52.26l23.48,0a12.2,12.2,0,0,1,11.95,12.4v23h20.87l0-28.26c0-13.1-12.65-17-12.65-17S262.89,38.52,262.89,23C262.89,4.1,246.62.13,231.46.13Zm11.63,27.16a7.26,7.26,0,0,1-6.85,6h-30v-14h30a6.87,6.87,0,0,1,6.84,6.09Z"/><path class="cls-1" d="M81.75,66.54c-.31,0-29.14.56-39.1-.41C26.62,64.56,20.94,52.68,20.94,43c0-12.09,8.24-21,21-22.66,6.08-.79,39.28-.41,39.63-.41h.7L82.34,0h-.7L44.06.08C39.87.34,32.93.76,25.83,3.66A44.65,44.65,0,0,0,8.63,17.57,43.51,43.51,0,0,0,0,43.67a52.78,52.78,0,0,0,.72,8.77A42.58,42.58,0,0,0,24.6,82.61c4.22,1.86,10.72,4.08,23.82,4.82l7.06.14s26.2,0,26.2,0h.7l.07-21.07Z"/></g></g></svg>